#!OML:ASF F:\VICON\USERDATA\INSTALL\rory3\rory3.ASF
:FULLY-SPECIFIED
:DEGREES
675
root 3.80171 16.537 0.321788 9.49646 4.25174 4.57712
lowerback -4.96534 4.55634 -0.793122
upperback -0.242734 6.2236 -3.45111
thorax 2.82535 3.1192 -2.64471
lowerneck 3.93148 6.2006 9.10725
upperneck 58.0557 7.2802 7.36668
head 26.3343 5.71017 4.24058
rclavicle 2.42145e-014 8.74653e-015
rhumerus -45.7031 -7.68809 -85.0456
rradius 58.7152
rwrist -45.72
rhand -6.36282 -47.5682
rfingers 7.12502
rthumb 19.4835 -76.612
lclavicle 2.42145e-014 8.74653e-015
lhumerus -23.5277 -8.57933 86.5607
lradius 38.723
lwrist 73.8027
lhand -42.8746 -14.5172
lfingers 7.12502
lthumb -15.7376 14.8629
rfemur -51.8504 11.9511 5.87942
rtibia 76.2445
rfoot 9.30326 10.6524
rtoes -31.668
lfemur -28.5614 -6.92745 -32.9335
ltibia 45.0195
lfoot -21.6226 13.8587
ltoes 7.29578
676
root 3.79938 16.5156 0.322468 9.52233 4.35566 4.49785
lowerback -5.04813 4.55772 -0.588381
upperback -0.241452 6.21615 -3.43876
thorax 2.89302 3.11822 -2.73807
lowerneck 3.94979 6.20539 9.14254
upperneck 57.9866 7.30757 7.31276
head 26.2373 5.73022 4.18751
rclavicle -9.13291e-014 3.79679e-014
rhumerus -45.8385 -7.52743 -85.0551
rradius 58.9196
rwrist -45.9397
rhand -6.04436 -47.5139
rfingers 7.12502
rthumb 19.7897 -76.5264
lclavicle -9.13291e-014 3.79679e-014
lhumerus -23.6705 -8.72025 86.5746
lradius 38.8355
lwrist 73.7494
lhand -42.3093 -15.5634
lfingers 7.12502
lthumb -15.1931 13.8587
rfemur -51.5362 11.8497 6.08449
rtibia 76.1979
rfoot 6.8797 12.6456
rtoes -38.4038
lfemur -28.6564 -7.19909 -32.8435
ltibia 45.1262
lfoot -21.6008 14.0686
ltoes 7.35171
677
root 3.79884 16.5259 0.328546 9.49942 4.45526 4.39656
lowerback -5.2575 4.57183 -0.451692
upperback -0.183398 6.23301 -3.39662
thorax 3.08079 3.12816 -2.74816
lowerneck 4.05763 6.17764 9.28722
upperneck 57.8283 7.35008 7.08094
head 26.0144 5.77264 3.98105
rclavicle -4.52732e-014 8.15017e-015
rhumerus -46.0992 -7.40047 -85.0925
rradius 59.3528
rwrist -46.1188
rhand -5.76953 -48.2924
rfingers 7.12502
rthumb 20.0539 -77.2775
lclavicle -4.52732e-014 8.15017e-015
lhumerus -23.6319 -8.75065 86.6102
lradius 38.7908
lwrist 73.7932
lhand -42.0455 -16.2496
lfingers 7.12502
lthumb -14.939 13.1916
rfemur -51.5168 12.0864 6.00097
rtibia 76.0943
rfoot 8.15073 12.0544
rtoes -34.6324
lfemur -28.6249 -7.46838 -32.7158
ltibia 45.1356
lfoot -21.6176 14.2213
ltoes 8.09621
678
root 3.79487 16.5264 0.336275 9.50072 4.45847 4.49018
lowerback -5.57155 4.5885 -0.548371
upperback -0.0266829 6.27442 -3.39612
thorax 3.41051 3.14719 -2.65708
lowerneck 3.97155 6.16354 9.40894
upperneck 57.6706 7.45059 6.7355
head 25.8975 5.8139 3.74297
rclavicle -3.72721e-014 -8.94531e-015
rhumerus -46.0395 -7.35334 -85.0912
rradius 59.5745
rwrist -46.057
rhand -6.19791 -48.1833
rfingers 7.12502
rthumb 19.6421 -77.211
lclavicle -3.72721e-014 -8.94531e-015
lhumerus -23.3629 -8.77189 86.6572
lradius 38.7072
lwrist 73.8754
lhand -42.1334 -16.1896
lfingers 7.12502
lthumb -15.0236 13.2454
rfemur -51.5095 12.2891 5.77341
rtibia 76.0503
rfoot 8.28494 11.9573
rtoes -33.0548
lfemur -28.6377 -7.67146 -32.7957
ltibia 45.1844
lfoot -21.6237 14.3434
ltoes 8.77076
679
root 3.79316 16.5233 0.342447 9.44786 4.4115 4.69078
lowerback -5.73506 4.60349 -0.671442
upperback 0.147691 6.31494 -3.43944
thorax 3.6767 3.16573 -2.60836
lowerneck 3.70284 6.16037 9.36446
upperneck 57.6986 7.47163 6.64195
head 26.0672 5.79524 3.73279
rclavicle 3.25137e-014 7.15625e-015
rhumerus -45.7243 -7.31363 -85.0682
rradius 59.4293
rwrist -45.9752
rhand -5.88245 -48.3089
rfingers 7.12502
rthumb 19.9454 -77.3053
lclavicle 3.25137e-014 7.15625e-015
lhumerus -23.179 -8.78626 86.6839
lradius 38.7718
lwrist 73.9211
lhand -42.4356 -15.8348
lfingers 7.12502
lthumb -15.3148 13.5782
rfemur -51.4313 12.5191 5.40372
rtibia 76.0102
rfoot 8.26764 12.1283
rtoes -32.5342
lfemur -28.502 -7.79111 -33.0258
ltibia 45.1569
lfoot -21.5784 14.5247
ltoes 8.40768
